<svg aria-hidden="true" xmlns="http://www.w3.org/2000/svg" fill="none" xmlns:xlink="http://www.w3.org/1999/xlink">
  <symbol id="check" viewBox="0 0 20 20" fill="currentColor">
    <path
      fillRule="evenodd"
      d="M16.707 5.293a1 1 0 00-1.414 0L8 12.586 4.707 9.293a1 1 0 00-1.414 1.414l4 4a1 1 0 001.414 0l8-8a1 1 0 000-1.414z"
      clipRule="evenodd"
    />
  </symbol>
  <symbol id="calendar" viewBox="0 0 256 256" stroke="currentColor" fill="currentColor">
    <path
      d="M208,32H184V24a8,8,0,0,0-16,0v8H88V24a8,8,0,0,0-16,0v8H48A16,16,0,0,0,32,48V208a16,16,0,0,0,16,16H208a16,16,0,0,0,16-16V48A16,16,0,0,0,208,32ZM169.66,133.66l-48,48a8,8,0,0,1-11.32,0l-24-24a8,8,0,0,1,11.32-11.32L116,164.69l42.34-42.35a8,8,0,0,1,11.32,11.32ZM48,80V48H72v8a8,8,0,0,0,16,0V48h80v8a8,8,0,0,0,16,0V48h24V80Z"
    ></path>
  </symbol>

  <symbol id="cube" viewBox="0 0 256 256" stroke="#DCD8FF" fill="#DCD8FF">
    <path d="M256 191.326L125.025 129.347L0 191.326L125.025 256L256 191.326Z" fill="#DCD8FF" />
    <path d="M256 62.8772L125.025 0L0 62.8772L125.025 129.347L256 62.8772Z" fill="#4A3AFF" />
    <path d="M0 62.8772V191.326L125.025 129.347L0 62.8772Z" fill="#B8B1FF" />
    <path d="M256 62.8772V191.326L125.025 129.347L256 62.8772Z" fill="#B8B1FF" />
  </symbol>

  <symbol id="circle" viewBox="0 0 256 256" fill="none">
    <path
      d="M128 0C94.0523 -4.04822e-07 61.495 13.4857 37.4903 37.4903C13.4857 61.495 2.9678e-06 94.0523 0 128C-2.9678e-06 161.948 13.4857 194.505 37.4903 218.51C61.495 242.514 94.0523 256 128 256L128 0Z"
      fill="#4A3AFF"
    />
    <path
      d="M128 256C161.948 256 194.505 242.514 218.51 218.51C242.514 194.505 256 161.948 256 128C256 94.0523 242.514 61.495 218.51 37.4904C194.505 13.4857 161.948 8.49859e-06 128 0L128 256Z"
      fill="#B8B1FF"
    />
  </symbol>
  <symbol id="square" viewBox="0 0 256 256" fill="none">
    <rect width="124.541" height="256" fill="#4A3AFF" />
    <rect x="124.541" width="131.459" height="256" fill="#B8B1FF" />
    <rect x="124.541" y="124.54" width="131.459" height="131.459" fill="#DCD8FF" />
  </symbol>
  <symbol id="phone" viewBox="0 0 24 24" fill="none" stroke="currentColor" strokeLinecap="round" strokeLinejoin="round">
    <path
      d="M13.832 16.568a1 1 0 0 0 1.213-.303l.355-.465A2 2 0 0 1 17 15h3a2 2 0 0 1 2 2v3a2 2 0 0 1-2 2A18 18 0 0 1 2 4a2 2 0 0 1 2-2h3a2 2 0 0 1 2 2v3a2 2 0 0 1-.8 1.6l-.468.351a1 1 0 0 0-.292 1.233 14 14 0 0 0 6.392 6.384"
    />
  </symbol>
  <symbol id="boxes" viewBox="0 0 24 24" fill="none" stroke="currentColor" strokeLinecap="round" strokeLinejoin="round">
    <path d="M2.97 12.92A2 2 0 0 0 2 14.63v3.24a2 2 0 0 0 .97 1.71l3 1.8a2 2 0 0 0 2.06 0L12 19v-5.5l-5-3-4.03 2.42Z" />
    <path d="m7 16.5-4.74-2.85" />
    <path d="m7 16.5 5-3" />
    <path d="M7 16.5v5.17" />
    <path d="M12 13.5V19l3.97 2.38a2 2 0 0 0 2.06 0l3-1.8a2 2 0 0 0 .97-1.71v-3.24a2 2 0 0 0-.97-1.71L17 10.5l-5 3Z" />
    <path d="m17 16.5-5-3" />
    <path d="m17 16.5 4.74-2.85" />
    <path d="M17 16.5v5.17" />
    <path d="M7.97 4.42A2 2 0 0 0 7 6.13v4.37l5 3 5-3V6.13a2 2 0 0 0-.97-1.71l-3-1.8a2 2 0 0 0-2.06 0l-3 1.8Z" />
    <path d="M12 8 7.26 5.15" />
    <path d="m12 8 4.74-2.85" />
    <path d="M12 13.5V8" />
  </symbol>

  <symbol
    id="rocket"
    viewBox="0 0 24 24"
    fill="none"
    stroke="currentColor"
    strokeLinecap="round"
    strokeLinejoin="round"
  >
    <path d="M4.5 16.5c-1.5 1.26-2 5-2 5s3.74-.5 5-2c.71-.84.7-2.13-.09-2.91a2.18 2.18 0 0 0-2.91-.09z" />
    <path d="m12 15-3-3a22 22 0 0 1 2-3.95A12.88 12.88 0 0 1 22 2c0 2.72-.78 7.5-6 11a22.35 22.35 0 0 1-4 2z" />
    <path d="M9 12H4s.55-3.03 2-4c1.62-1.08 5 0 5 0" />
    <path d="M12 15v5s3.03-.55 4-2c1.08-1.62 0-5 0-5" />
  </symbol>

  <symbol id="arrow-right" stroke="currentColor" fill="currentColor" strokeWidth="0" viewBox="0 0 16 16">
    <path
      fillRule="evenodd"
      d="M14 2.5a.5.5 0 0 0-.5-.5h-6a.5.5 0 0 0 0 1h4.793L2.146 13.146a.5.5 0 0 0 .708.708L13 3.707V8.5a.5.5 0 0 0 1 0z"
    />
  </symbol>

  <symbol id="serbyte" viewBox="0 0 512 512">
    <rect width="500" height="512" fill="#F0F0F0" rx="102.4" ry="102.4" />
    <path
      fillRule="evenodd"
      clipRule="evenodd"
      fill="black"
      d="M136.049 233.824L136.307 233.567L332.015 37.859C336.701 33.1727 344.315 33.1884 349.021 37.8942L366.062 54.935C370.767 59.6407 370.783 67.2544 366.097 71.9407L290.597 147.441C289.816 148.222 289.816 149.488 290.597 150.269L374.387 234.059L374.645 234.317C375.658 235.323 375.806 235.478 381.293 240.965C383.6 243.984 387.719 249.426 387.736 257.629C387.753 265.832 382.979 270.195 380.685 273.205C378.977 275.446 375.747 278.149 374.738 279.152L374.481 279.408L179.866 474.023C175.18 478.709 167.566 478.693 162.86 473.987L145.819 456.947C141.114 452.241 141.098 444.627 145.784 439.941L220.191 365.534C220.972 364.753 220.972 363.487 220.191 362.706L136.401 278.916L136.142 278.659C135.129 277.652 132.986 275.522 131.268 273.274C128.962 270.254 124.165 265.287 124.148 257.084C124.131 248.881 128.904 242.198 131.198 239.188C132.906 236.947 135.04 234.826 136.049 233.824ZM254.132 328.765C254.913 329.546 256.179 329.546 256.96 328.765L327.671 258.054C328.452 257.273 328.452 256.007 327.671 255.226L256.656 184.211C255.875 183.429 254.608 183.429 253.827 184.211L183.116 254.921C182.335 255.702 182.335 256.969 183.116 257.75L254.132 328.765Z"
    />
  </symbol>

  <symbol id="next" viewBox=".5 -.2 1023 1024.1">
    <path
      d="M478.5.6c-2.2.2-9.2.9-15.5 1.4C317.7 15.1 181.6 93.5 95.4 214c-48 67-78.7 143-90.3 223.5C1 465.6.5 473.9.5 512s.5 46.4 4.6 74.5C32.9 778.6 169.6 940 355 999.8c33.2 10.7 68.2 18 108 22.4 15.5 1.7 82.5 1.7 98 0 68.7-7.6 126.9-24.6 184.3-53.9 8.8-4.5 10.5-5.7 9.3-6.7-.8-.6-38.3-50.9-83.3-111.7l-81.8-110.5L487 587.7c-56.4-83.4-102.8-151.6-103.2-151.6-.4-.1-.8 67.3-1 149.6-.3 144.1-.4 149.9-2.2 153.3-2.6 4.9-4.6 6.9-8.8 9.1-3.2 1.6-6 1.9-21.1 1.9h-17.3l-4.6-2.9c-3-1.9-5.2-4.4-6.7-7.3l-2.1-4.5.2-200.5.3-200.6 3.1-3.9c1.6-2.1 5-4.8 7.4-6.1 4.1-2 5.7-2.2 23-2.2 20.4 0 23.8.8 29.1 6.6 1.5 1.6 57 85.2 123.4 185.9s157.2 238.2 201.8 305.7l81 122.7 4.1-2.7c36.3-23.6 74.7-57.2 105.1-92.2 64.7-74.3 106.4-164.9 120.4-261.5 4.1-28.1 4.6-36.4 4.6-74.5s-.5-46.4-4.6-74.5C991.1 245.4 854.4 84 669 24.2 636.3 13.6 601.5 6.3 562.5 1.9c-9.6-1-75.7-2.1-84-1.3M687.9 310c4.8 2.4 8.7 7 10.1 11.8.8 2.6 1 58.2.8 183.5l-.3 179.8-31.7-48.6-31.8-48.6V457.2c0-84.5.4-132 1-134.3 1.6-5.6 5.1-10 9.9-12.6 4.1-2.1 5.6-2.3 21.3-2.3 14.8 0 17.4.2 20.7 2"
    />
    <path
      d="M784.3 945.1c-3.5 2.2-4.6 3.7-1.5 2 2.2-1.3 5.8-4 5.2-4.1-.3 0-2 1-3.7 2.1m-6.9 4.5c-1.8 1.4-1.8 1.5.4.4 1.2-.6 2.2-1.3 2.2-1.5 0-.8-.5-.6-2.6 1.1m-5 3c-1.8 1.4-1.8 1.5.4.4 1.2-.6 2.2-1.3 2.2-1.5 0-.8-.5-.6-2.6 1.1m-5 3c-1.8 1.4-1.8 1.5.4.4 1.2-.6 2.2-1.3 2.2-1.5 0-.8-.5-.6-2.6 1.1m-7.6 4c-3.8 2-3.6 2.8.2.9 1.7-.9 3-1.8 3-2 0-.7-.1-.6-3.2 1.1"
    />
  </symbol>

  <symbol id="react" viewBox="0 0 3618.6 3618.6">
    <circle cx="1806.5" cy="1807.1" r="302.6" fill="#000" />
    <path
      fill="none"
      stroke="#000"
      stroke-width="144.7456"
      stroke-miterlimit="10"
      d="M1806.5 1191.9c406.2 0 783.6 58.3 1068.1 156.2 342.8 118 553.6 296.9 553.6 458.9 0 168.8-223.4 358.9-591.5 480.8-278.3 92.2-644.6 140.4-1030.2 140.4-395.4 0-769.7-45.2-1051.2-141.4-356.1-121.7-570.6-314.2-570.6-479.8 0-160.7 201.3-338.2 539.3-456 285.6-99.5 672.3-159.1 1082.5-159.1z"
    />
    <path
      fill="none"
      stroke="#000"
      stroke-width="144.7456"
      stroke-miterlimit="10"
      d="M1271 1501.3c202.9-351.9 442-649.7 669-847.2 273.5-238 533.8-331.2 674.1-250.3 146.2 84.3 199.3 372.8 121 752.7-59.2 287.2-200.4 628.5-393.1 962.6-197.5 342.5-423.7 644.2-647.6 840-283.3 247.7-557.3 337.3-700.7 254.6-139.2-80.3-192.4-343.3-125.7-695 56.4-297.4 198-662.1 403-1017.4z"
    />
    <path
      fill="none"
      stroke="#000"
      stroke-width="144.7456"
      stroke-miterlimit="10"
      d="M1271.5 2119.8c-203.5-351.6-342.1-707.4-399.9-1002.7-69.6-355.8-20.4-627.9 119.8-709 146.1-84.6 422.5 13.5 712.5 271 219.3 194.7 444.4 487.5 637.6 821.3 198.1 342.2 346.6 688.8 404.3 980.5 73.1 369.2 13.9 651.3-129.4 734.2-139.1 80.5-393.5-4.7-664.9-238.2-229.2-197.3-474.5-502.1-680-857.1z"
    />
  </symbol>

  <symbol id="html" viewBox="0 0 32 32" fill="none">
    <g strokeWidth="0"></g>
    <g strokeLinecap="round" strokeLinejoin="round"></g>
    <g>
      <path d="M6 28L4 3H28L26 28L16 31L6 28Z" fill="#000"></path>
      <path d="M26 5H16V29.5L24 27L26 5Z" fill="#0e0e0e"></path>
      <path
        d="M9.5 17.5L8.5 8H24L23.5 11H11.5L12 14.5H23L22 24L16 26L10 24L9.5 19H12.5L13 21.5L16 22.5L19 21.5L19.5 17.5H9.5Z"
        fill="#fff"
      ></path>
    </g>
  </symbol>

  <symbol id="typescript" viewBox="0 0 400 400">
    <path d="M0 200V0h400v400H0" fill="#000" />
    <path
      fill="#fff"
      d="M87.7 200.7V217h52v148h36.9V217h52v-16c0-9 0-16.3-.4-16.5 0-.3-31.7-.4-70.2-.4l-70 .3v16.4l-.3-.1zM321.4 184c10.2 2.4 18 7 25 14.3 3.7 4 9.2 11 9.6 12.8 0 .6-17.3 12.3-27.8 18.8-.4.3-2-1.4-3.6-4-5.2-7.4-10.5-10.6-18.8-11.2-12-.8-20 5.5-20 16 0 3.2.6 5 1.8 7.6 2.7 5.5 7.7 8.8 23.2 15.6 28.6 12.3 41 20.4 48.5 32 8.5 13 10.4 33.4 4.7 48.7-6.4 16.7-22 28-44.3 31.7-7 1.2-23 1-30.5-.3-16-3-31.3-11-40.7-21.3-3.7-4-10.8-14.7-10.4-15.4l3.8-2.4 15-8.7 11.3-6.6 2.6 3.5c3.3 5.2 10.7 12.2 15 14.6 13 6.7 30.4 5.8 39-2 3.7-3.4 5.3-7 5.3-12 0-4.6-.7-6.7-3-10.2-3.2-4.4-9.6-8-27.6-16-20.7-8.8-29.5-14.4-37.7-23-4.7-5.2-9-13.3-11-20-1.5-5.8-2-20-.6-25.7 4.3-20 19.4-34 41-38 7-1.4 23.5-.8 30.4 1l-.2.2z"
    />
  </symbol>

  <symbol id="figma" viewBox="0.5 0.5 171.1 246">
    <path
      d="M150.7 85c12.5-8.2 20.8-22.4 20.8-38.5 0-25.4-20.7-46-46-46h-79C21.1.5.5 21.2.5 46.5.5 62.6 8.8 76.8 21.3 85 8.8 93.2.5 107.4.5 123.5s8.3 30.3 20.8 38.5C8.8 170.2.5 184.4.5 200.5c0 25.4 20.8 46 46.3 46 25.8 0 46.8-20.9 46.8-46.5v-42.5c8.2 7.4 19.1 12 31 12h1c25.4 0 46-20.7 46-46-.1-16.1-8.4-30.3-20.9-38.5zM78.5 200c0 17.3-14.2 31.5-31.7 31.5-17.2 0-31.2-13.9-31.2-31s13.9-30.9 30.9-31h32zm0-45.5h-32c-17.1 0-30.9-13.9-30.9-31s13.9-31 31-31h32v62zm0-77h-32c-17.1 0-31-13.9-31-31s13.9-31 31-31h32zm15-62h32c17.1 0 31 13.9 31 31s-13.9 31-31 31h-32zm32 139h-1c-17.1 0-31-13.9-31-31s13.9-31 31-31h1c17.1 0 31 13.9 31 31s-13.9 31-31 31z"
    />
  </symbol>

  <symbol id="openai" viewBox="-1 -0.1 949.1 959.8">
    <path
      d="M925.8 456.3c10.4 23.2 17 48 19.7 73.3 2.6 25.3 1.3 50.9-4.1 75.8-5.3 24.9-14.5 48.8-27.3 70.8-8.4 14.7-18.3 28.5-29.7 41.2-11.3 12.6-23.9 24-37.6 34-13.8 10-28.5 18.4-44.1 25.3-15.5 6.8-31.7 12-48.3 15.4-7.8 24.2-19.4 47.1-34.4 67.7-14.9 20.6-33 38.7-53.6 53.6-20.6 15-43.4 26.6-67.6 34.4-24.2 7.9-49.5 11.8-75 11.8-16.9.1-33.9-1.7-50.5-5.1-16.5-3.5-32.7-8.8-48.2-15.7s-30.2-15.5-43.9-25.5c-13.6-10-26.2-21.5-37.4-34.2-25 5.4-50.6 6.7-75.9 4.1-25.3-2.7-50.1-9.3-73.4-19.7-23.2-10.3-44.7-24.3-63.6-41.4S95.9 785 83.2 763c-8.5-14.7-15.5-30.2-20.8-46.3s-8.8-32.7-10.6-49.6c-1.8-16.8-1.7-33.8.1-50.7 1.8-16.8 5.5-33.4 10.8-49.5-17-18.9-31-40.4-41.4-63.6C11 480 4.3 455.3 1.7 430c-2.7-25.3-1.3-50.9 4-75.8s14.5-48.8 27.3-70.8c8.4-14.7 18.3-28.6 29.6-41.2s24-24 37.7-34 28.5-18.5 44-25.3c15.6-6.9 31.8-12 48.4-15.4 7.8-24.3 19.4-47.1 34.3-67.7 15-20.6 33.1-38.7 53.7-53.7 20.6-14.9 43.4-26.5 67.6-34.4 24.2-7.8 49.5-11.8 75-11.7 16.9-.1 33.9 1.6 50.5 5.1s32.8 8.7 48.3 15.6c15.5 7 30.2 15.5 43.9 25.5 13.7 10.1 26.3 21.5 37.5 34.2 24.9-5.3 50.5-6.6 75.8-4s50 9.3 73.3 19.6c23.2 10.4 44.7 24.3 63.6 41.4 18.9 17 35 36.9 47.7 59 8.5 14.6 15.5 30.1 20.8 46.3 5.3 16.1 8.9 32.7 10.6 49.6 1.8 16.9 1.8 33.9-.1 50.8-1.8 16.9-5.5 33.5-10.8 49.6 17.1 18.9 31 40.3 41.4 63.6M592.6 883.2c21.8-9 41.6-22.3 58.3-39s30-36.5 39-58.4c9-21.8 13.7-45.2 13.7-68.8V494q-.1-.3-.2-.7-.1-.3-.3-.6t-.5-.5q-.3-.3-.6-.4l-80.7-46.6v269.4c0 2.7-.4 5.5-1.1 8.1-.7 2.7-1.7 5.2-3.1 7.6s-3 4.6-5 6.5a32 32 0 0 1-6.5 5L414.5 852.1c-1.6 1-4.3 2.4-5.7 3.2 7.9 6.7 16.5 12.6 25.5 17.8 9.1 5.2 18.5 9.6 28.3 13.2 9.8 3.5 19.9 6.2 30.1 8 10.3 1.8 20.7 2.7 31.1 2.7 23.6 0 47-4.7 68.8-13.8M137.5 731.8c11.9 20.5 27.6 38.3 46.3 52.7 18.8 14.4 40.1 24.9 62.9 31s46.6 7.7 70 4.6 45.9-10.7 66.4-22.5l193.2-111.5.5-.5q.2-.2.3-.6.2-.3.3-.6v-94L344.2 725.3c-2.4 1.4-4.9 2.4-7.5 3.2-2.7.7-5.4 1-8.2 1-2.7 0-5.4-.3-8.1-1-2.6-.8-5.2-1.8-7.6-3.2L121.7 614.9c-1.7-1-4.2-2.5-5.6-3.4-1.8 10.3-2.7 20.7-2.7 31.1s1 20.8 2.8 31.1c1.8 10.2 4.6 20.3 8.1 30.1q5.4 14.7 13.2 28.2zm-50.2-417c-11.8 20.5-19.4 43.1-22.5 66.5s-1.5 47.1 4.6 70c6.1 22.8 16.6 44.1 31 62.9 14.4 18.7 32.3 34.4 52.7 46.2L346.2 672q.3.1.7.2h.7q.4 0 .7-.2.3-.1.6-.3l81-46.8-233.2-134.6c-2.3-1.4-4.5-3.1-6.5-5a32 32 0 0 1-5-6.5c-1.3-2.4-2.4-4.9-3.1-7.6-.7-2.6-1.1-5.3-1-8.1V236c-9.8 3.6-19.3 8-28.3 13.2q-13.5 7.95-25.5 18c-7.9 6.7-15.3 14.1-22 22.1-6.7 7.9-12.6 16.5-17.8 25.5zm663.3 154.4c2.4 1.4 4.6 3 6.6 5 1.9 1.9 3.6 4.1 5 6.5 1.3 2.4 2.4 5 3.1 7.6.6 2.7 1 5.4.9 8.2v227.1c32.1-11.8 60.1-32.5 80.8-59.7 20.8-27.2 33.3-59.7 36.2-93.7s-3.9-68.2-19.7-98.5-39.9-55.5-69.5-72.5L600.9 287.6q-.3-.1-.7-.2h-.7q-.3.1-.7.2-.3.1-.6.3l-80.6 46.6 233.2 134.7zm80.5-121h-.1v.1zm-.1-.1c5.8-33.6 1.9-68.2-11.3-99.7-13.1-31.5-35-58.6-63-78.2-28-19.5-61-30.7-95.1-32.2-34.2-1.4-68 6.9-97.6 23.9L370.9 273.4q-.3.2-.5.5l-.4.6q-.1.3-.2.7-.1.3-.1.7v93.2l233.2-134.7c2.4-1.4 5-2.4 7.6-3.2 2.7-.7 5.4-1 8.1-1 2.8 0 5.5.3 8.2 1 2.6.8 5.1 1.8 7.5 3.2l191.1 110.4c1.7 1 4.2 2.4 5.6 3.3M325.7 244.9c0-2.7.4-5.4 1.1-8.1.7-2.6 1.7-5.2 3.1-7.6 1.4-2.3 3-4.5 5-6.5 1.9-1.9 4.1-3.6 6.5-4.9l191.1-110.3c1.8-1.1 4.3-2.5 5.7-3.2C512 82.4 480 68.4 446.1 64.1c-33.9-4.4-68.3 1-99.2 15.5-31 14.5-57.2 37.6-75.5 66.4-18.3 28.9-28 62.3-28 96.5v223q.1.4.2.7t.3.6.5.6q.2.2.6.4l80.7 46.6zm43.8 294.7 103.9 60 103.9-60V419.7l-103.8-60-103.9 60z"
    />
  </symbol>
  <symbol id="express" viewBox="0 0 128 128">
    <path
      d="M126.67 98.44c-4.56 1.16-7.38.05-9.91-3.75-5.68-8.51-11.95-16.63-18-24.9-.78-1.07-1.59-2.12-2.6-3.45C89 76 81.85 85.2 75.14 94.77c-2.4 3.42-4.92 4.91-9.4 3.7l26.92-36.13L67.6 29.71c4.31-.84 7.29-.41 9.93 3.45 5.83 8.52 12.26 16.63 18.67 25.21 6.45-8.55 12.8-16.67 18.8-25.11 2.41-3.42 5-4.72 9.33-3.46-3.28 4.35-6.49 8.63-9.72 12.88-4.36 5.73-8.64 11.53-13.16 17.14-1.61 2-1.35 3.3.09 5.19C109.9 76 118.16 87.1 126.67 98.44zM1.33 61.74c.72-3.61 1.2-7.29 2.2-10.83 6-21.43 30.6-30.34 47.5-17.06C60.93 41.64 63.39 52.62 62.9 65H7.1c-.84 22.21 15.15 35.62 35.53 28.78 7.15-2.4 11.36-8 13.47-15 1.07-3.51 2.84-4.06 6.14-3.06-1.69 8.76-5.52 16.08-13.52 20.66-12 6.86-29.13 4.64-38.14-4.89C5.26 85.89 3 78.92 2 71.39c-.15-1.2-.46-2.38-.7-3.57q.03-3.04.03-6.08zm5.87-1.49h50.43c-.33-16.06-10.33-27.47-24-27.57-15-.12-25.78 11.02-26.43 27.57z"
    />
  </symbol>

  <symbol id="mongodb" viewBox="0 0 1024 1024" fill="#000000">
    <g strokeWidth="0"></g>
    <g strokeLinecap="round" strokeLinejoin="round"></g>
    <g>
      <circle cx="512" cy="512" r="512" fill="#000"></circle>
      <path
        d="M648.86 449.44c-32.34-142.73-108.77-189.66-117-207.59-9-12.65-18.12-35.15-18.12-35.15-.15-.38-.39-1.05-.67-1.7-.93 12.65-1.41 17.53-13.37 30.29-18.52 14.48-113.54 94.21-121.27 256.37-7.21 151.24 109.25 241.36 125 252.85l1.79 1.27v-.11c.1.76 5 36 8.44 73.34H526a726.68 726.68 0 0 1 13-78.53l1-.65a204.48 204.48 0 0 0 20.11-16.45l.72-.65c33.48-30.93 93.67-102.47 93.08-216.53a347.07 347.07 0 0 0-5.05-56.76zM512.35 659.12s0-212.12 7-212.08c5.46 0 12.53 273.61 12.53 273.61-9.72-1.17-19.53-45.03-19.53-61.53z"
        fill="#fff"
      ></path>
    </g>
  </symbol>
  <symbol id="motion" viewBox="0 0 24 9">
    <path
      d="M 9.062 0 L 4.32 8.992 L 0 8.992 L 3.703 1.971 C 4.277 0.882 5.709 0 6.902 0 Z M 19.656 2.248 C 19.656 1.006 20.623 0 21.816 0 C 23.009 0 23.976 1.006 23.976 2.248 C 23.976 3.49 23.009 4.496 21.816 4.496 C 20.623 4.496 19.656 3.49 19.656 2.248 Z M 9.872 0 L 14.192 0 L 9.45 8.992 L 5.13 8.992 Z M 14.974 0 L 19.294 0 L 15.592 7.021 C 15.018 8.11 13.585 8.992 12.392 8.992 L 10.232 8.992 Z"
      fill="rgb(0, 0, 0)"
    ></path>
  </symbol>

  <symbol id="magic-wand" viewBox="0 0 256 256" color="#fff" weight="fill">
    <path
      d="M248,152a8,8,0,0,1-8,8H224v16a8,8,0,0,1-16,0V160H192a8,8,0,0,1,0-16h16V128a8,8,0,0,1,16,0v16h16A8,8,0,0,1,248,152ZM56,72H72V88a8,8,0,0,0,16,0V72h16a8,8,0,0,0,0-16H88V40a8,8,0,0,0-16,0V56H56a8,8,0,0,0,0,16ZM184,192h-8v-8a8,8,0,0,0-16,0v8h-8a8,8,0,0,0,0,16h8v8a8,8,0,0,0,16,0v-8h8a8,8,0,0,0,0-16ZM219.31,80,80,219.31a16,16,0,0,1-22.62,0L36.68,198.63a16,16,0,0,1,0-22.63L176,36.69a16,16,0,0,1,22.63,0l20.68,20.68A16,16,0,0,1,219.31,80ZM208,68.69,187.31,48l-32,32L176,100.69Z"
    ></path>
  </symbol>

  <symbol id="paint-bucket" viewBox="0 0 256 256">
    <g color="#fff" weight="fill">
      <path
        d="M256,208a24,24,0,0,1-48,0c0-17.91,15.57-41.77,17.34-44.44a8,8,0,0,1,13.32,0C240.43,166.23,256,190.09,256,208ZM132.49,124.49a12,12,0,0,0-17-17l0,0s0,0,0,0a12,12,0,0,0,17,16.94ZM37.65,18.34A8,8,0,0,0,26.34,29.66l32.6,32.6L70.25,51ZM234.53,139.07a8,8,0,0,0,3.13-13.24L122.17,10.34a8,8,0,0,0-11.31,0L70.25,51l40.43,40.42a28,28,0,1,1-11.31,11.32L58.94,62.26,15,106.17a24,24,0,0,0,0,33.94L99.89,225a24,24,0,0,0,33.94,0l78.49-78.49Z"
      ></path>
    </g>
  </symbol>

  <symbol id="web" viewBox="0 0 256 256" color="#fff">
    <path
      d="M232,168h-8V72a24,24,0,0,0-24-24H56A24,24,0,0,0,32,72v96H24a8,8,0,0,0-8,8v16a24,24,0,0,0,24,24H216a24,24,0,0,0,24-24V176A8,8,0,0,0,232,168ZM112,72h32a8,8,0,0,1,0,16H112a8,8,0,0,1,0-16ZM224,192a8,8,0,0,1-8,8H40a8,8,0,0,1-8-8v-8H224Z"
    ></path>
  </symbol>

  <symbol id="page" viewBox="0 0 256 256">
    <path
      d="M216,40H40A16,16,0,0,0,24,56V200a16,16,0,0,0,16,16H216a16,16,0,0,0,16-16V56A16,16,0,0,0,216,40ZM40,56H216V96H40ZM216,200H112V112H216v88Z"
    ></path>
  </symbol>

  <symbol id="world" viewBox="0 0 256 256">
    <path
      d="M128,24A104,104,0,1,0,232,128,104.11,104.11,0,0,0,128,24Zm0,16c8.15,0,24,31.06,24,88,0,8.24-.34,15.92-.93,23.07-7.15.59-14.83.93-23.07.93-56.94,0-88-15.85-88-24A88.1,88.1,0,0,1,128,40ZM43.4,152.26C63.28,162.65,95.76,168,128,168c7.09,0,14.19-.26,21.17-.77C144.23,199,134,216,128,216A88.17,88.17,0,0,1,43.4,152.26Z"
    ></path>
  </symbol>

  <symbol id="seo" viewBox="0 0 24 24">
    <path
      d="M22.1987 18.498l-9.7699 5.5022v-4.2855l6.0872-3.3338 3.6826 2.117zm.6683-.6026V6.3884l-3.5752 2.0544v7.396zm-21.0657.6026l9.7699 5.5022v-4.2855L5.484 16.3809l-3.6826 2.117zm-.6683-.6026V6.3884l3.5751 2.0544v7.396zm.4183-12.2515l10.0199-5.644v4.1434L5.152 7.6586l-.0489.028zm20.8975 0l-10.02-5.644v4.1434l6.4192 3.5154.0489.028 3.5518-2.0427zm-10.8775 13.096l-6.0056-3.2873V8.9384l6.0054 3.4525v6.349zm.8575 0l6.0053-3.2873V8.9384l-6.0053 3.4525zM5.9724 8.1845l6.0287-3.3015L18.03 8.1845l-6.0288 3.4665z"
    ></path>
  </symbol>
  <symbol id="planet" viewBox="0 0 24 24">
    <path fill="none" d="M0 0h24v24H0z"></path>
    <path
      d="m2.88 7.88 1.54 1.54C4.15 10.23 4 11.1 4 12c0 4.41 3.59 8 8 8s8-3.59 8-8-3.59-8-8-8c-.9 0-1.77.15-2.58.42L7.89 2.89C9.15 2.32 10.54 2 12 2c5.52 0 10 4.48 10 10s-4.48 10-10 10S2 17.52 2 12c0-1.47.32-2.86.88-4.12zM6 12c0-3.31 2.69-6 6-6s6 2.69 6 6-2.69 6-6 6-6-2.69-6-6zm1-6.5C7 6.33 6.33 7 5.5 7S4 6.33 4 5.5 4.67 4 5.5 4 7 4.67 7 5.5z"
    ></path>
  </symbol>
  <symbol id="linkedin" viewBox="0 0 448 512">
    <path
      d="M416 32H31.9C14.3 32 0 46.5 0 64.3v383.4C0 465.5 14.3 480 31.9 480H416c17.6 0 32-14.5 32-32.3V64.3c0-17.8-14.4-32.3-32-32.3zM135.4 416H69V202.2h66.5V416zm-33.2-243c-21.3 0-38.5-17.3-38.5-38.5S80.9 96 102.2 96c21.2 0 38.5 17.3 38.5 38.5 0 21.3-17.2 38.5-38.5 38.5zm282.1 243h-66.4V312c0-24.8-.5-56.7-34.5-56.7-34.6 0-39.9 27-39.9 54.9V416h-66.4V202.2h63.7v29.2h.9c8.9-16.8 30.6-34.5 62.9-34.5 67.2 0 79.7 44.3 79.7 101.9V416z"
    ></path>
  </symbol>
  <symbol id="google" viewBox="0 0 488 512">
    <path
      d="M488 261.8C488 403.3 391.1 504 248 504 110.8 504 0 393.2 0 256S110.8 8 248 8c66.8 0 123 24.5 166.3 64.9l-67.5 64.9C258.5 52.6 94.3 116.6 94.3 256c0 86.5 69.1 156.6 153.7 156.6 98.2 0 135-70.4 140.8-106.9H248v-85.3h236.1c2.3 12.7 3.9 24.9 3.9 41.4z"
    ></path>
  </symbol>

  <symbol id="facebook" viewBox="0 0 512 512">
    <path
      d="M504 256C504 119 393 8 256 8S8 119 8 256c0 123.78 90.69 226.38 209.25 245V327.69h-63V256h63v-54.64c0-62.15 37-96.48 93.67-96.48 27.14 0 55.52 4.84 55.52 4.84v61h-31.28c-30.8 0-40.41 19.12-40.41 38.73V256h68.78l-11 71.69h-57.78V501C413.31 482.38 504 379.78 504 256z"
    ></path>
  </symbol>

  <symbol id="yelp" viewBox="0 0 384 512">
    <path
      d="M42.9 240.32l99.62 48.61c19.2 9.4 16.2 37.51-4.5 42.71L30.5 358.45a22.79 22.79 0 0 1-28.21-19.6 197.16 197.16 0 0 1 9-85.32 22.8 22.8 0 0 1 31.61-13.21zm44 239.25a199.45 199.45 0 0 0 79.42 32.11A22.78 22.78 0 0 0 192.94 490l3.9-110.82c.7-21.3-25.5-31.91-39.81-16.1l-74.21 82.4a22.82 22.82 0 0 0 4.09 34.09zm145.34-109.92l58.81 94a22.93 22.93 0 0 0 34 5.5 198.36 198.36 0 0 0 52.71-67.61A23 23 0 0 0 364.17 370l-105.42-34.26c-20.31-6.5-37.81 15.8-26.51 33.91zm148.33-132.23a197.44 197.44 0 0 0-50.41-69.31 22.85 22.85 0 0 0-34 4.4l-62 91.92c-11.9 17.7 4.7 40.61 25.2 34.71L366 268.63a23 23 0 0 0 14.61-31.21zM62.11 30.18a22.86 22.86 0 0 0-9.9 32l104.12 180.44c11.7 20.2 42.61 11.9 42.61-11.4V22.88a22.67 22.67 0 0 0-24.5-22.8 320.37 320.37 0 0 0-112.33 30.1z"
    ></path>
  </symbol>

  <symbol id="pinterest" viewBox="0 0 496 512">
    <path
      d="M496 256c0 137-111 248-248 248-25.6 0-50.2-3.9-73.4-11.1 10.1-16.5 25.2-43.5 30.8-65 3-11.6 15.4-59 15.4-59 8.1 15.4 31.7 28.5 56.8 28.5 74.8 0 128.7-68.8 128.7-154.3 0-81.9-66.9-143.2-152.9-143.2-107 0-163.9 71.8-163.9 150.1 0 36.4 19.4 81.7 50.3 96.1 4.7 2.2 7.2 1.2 8.3-3.3.8-3.4 5-20.3 6.9-28.1.6-2.5.3-4.7-1.7-7.1-10.1-12.5-18.3-35.3-18.3-56.6 0-54.7 41.4-107.6 112-107.6 60.9 0 103.6 41.5 103.6 100.9 0 67.1-33.9 113.6-78 113.6-24.3 0-42.6-20.1-36.7-44.8 7-29.5 20.5-61.3 20.5-82.6 0-19-10.2-34.9-31.4-34.9-24.9 0-44.9 25.7-44.9 60.2 0 22 7.4 36.8 7.4 36.8s-24.5 103.8-29 123.2c-5 21.4-3 51.6-.9 71.2C65.4 450.9 0 361.1 0 256 0 119 111 8 248 8s248 111 248 248z"
    ></path>
  </symbol>
  <symbol id="plus" viewBox="0 0 448 512">
    <path
      fill="currentColor"
      stroke="currentColor"
      d="M416 208H272V64c0-17.67-14.33-32-32-32h-32c-17.67 0-32 14.33-32 32v144H32c-17.67 0-32 14.33-32 32v32c0 17.67 14.33 32 32 32h144v144c0 17.67 14.33 32 32 32h32c17.67 0 32-14.33 32-32V304h144c17.67 0 32-14.33 32-32v-32c0-17.67-14.33-32-32-32z"
    ></path>
  </symbol>
  <symbol id="github" viewBox="0 0 496 512">
    <path
      fill="currentColor"
      stroke="currentColor"
      d="M165.9 397.4c0 2-2.3 3.6-5.2 3.6-3.3.3-5.6-1.3-5.6-3.6 0-2 2.3-3.6 5.2-3.6 3-.3 5.6 1.3 5.6 3.6zm-31.1-4.5c-.7 2 1.3 4.3 4.3 4.9 2.6 1 5.6 0 6.2-2s-1.3-4.3-4.3-5.2c-2.6-.7-5.5.3-6.2 2.3zm44.2-1.7c-2.9.7-4.9 2.6-4.6 4.9.3 2 2.9 3.3 5.9 2.6 2.9-.7 4.9-2.6 4.6-4.6-.3-1.9-3-3.2-5.9-2.9zM244.8 8C106.1 8 0 113.3 0 252c0 110.9 69.8 205.8 169.5 239.2 12.8 2.3 17.3-5.6 17.3-12.1 0-6.2-.3-40.4-.3-61.4 0 0-70 15-84.7-29.8 0 0-11.4-29.1-27.8-36.6 0 0-22.9-15.7 1.6-15.4 0 0 24.9 2 38.6 25.8 21.9 38.6 58.6 27.5 72.9 20.9 2.3-16 8.8-27.1 16-33.7-55.9-6.2-112.3-14.3-112.3-110.5 0-27.5 7.6-41.3 23.6-58.9-2.6-6.5-11.1-33.3 2.6-67.9 20.9-6.5 69 27 69 27 20-5.6 41.5-8.5 62.8-8.5s42.8 2.9 62.8 8.5c0 0 48.1-33.6 69-27 13.7 34.7 5.2 61.4 2.6 67.9 16 17.7 25.8 31.5 25.8 58.9 0 96.5-58.9 104.2-114.8 110.5 9.2 7.9 17 22.9 17 46.4 0 33.7-.3 75.4-.3 83.6 0 6.5 4.6 14.4 17.3 12.1C428.2 457.8 496 362.9 496 252 496 113.3 383.5 8 244.8 8zM97.2 352.9c-1.3 1-1 3.3.7 5.2 1.6 1.6 3.9 2.3 5.2 1 1.3-1 1-3.3-.7-5.2-1.6-1.6-3.9-2.3-5.2-1zm-10.8-8.1c-.7 1.3.3 2.9 2.3 3.9 1.6 1 3.6.7 4.3-.7.7-1.3-.3-2.9-2.3-3.9-2-.6-3.6-.3-4.3.7zm32.4 35.6c-1.6 1.3-1 4.3 1.3 6.2 2.3 2.3 5.2 2.6 6.5 1 1.3-1.3.7-4.3-1.3-6.2-2.2-2.3-5.2-2.6-6.5-1zm-11.4-14.7c-1.6 1-1.6 3.6 0 5.9 1.6 2.3 4.3 3.3 5.6 2.3 1.6-1.3 1.6-3.9 0-6.2-1.4-2.3-4-3.3-5.6-2z"
    ></path>
  </symbol>
</svg>