<svg xmlns="http://www.w3.org/2000/svg" aria-hidden="true" focusable="false"><defs/><symbol id="activity" viewBox="0 0 24 24" fill="none" stroke="currentColor" stroke-width="var(--icon-stroke-width, 2)" stroke-linecap="round" stroke-linejoin="round">
  <path d="M22 12h-2.48a2 2 0 0 0-1.93 1.46l-2.35 8.36a.25.25 0 0 1-.48 0L9.24 2.18a.25.25 0 0 0-.48 0l-2.35 8.36A2 2 0 0 1 4.49 12H2"/>
</symbol><symbol id="airplay" viewBox="0 0 24 24" fill="none" stroke="currentColor" stroke-width="var(--icon-stroke-width, 2)" stroke-linecap="round" stroke-linejoin="round">
  <path d="M5 17H4a2 2 0 0 1-2-2V5a2 2 0 0 1 2-2h16a2 2 0 0 1 2 2v10a2 2 0 0 1-2 2h-1"/>
  <path d="m12 15 5 6H7Z"/>
</symbol><symbol id="alarm-clock" viewBox="0 0 24 24" fill="none" stroke="currentColor" stroke-width="var(--icon-stroke-width, 2)" stroke-linecap="round" stroke-linejoin="round">
  <circle cx="12" cy="13" r="8"/>
  <path d="M12 9v4l2 2"/>
  <path d="M5 3 2 6"/>
  <path d="m22 6-3-3"/>
  <path d="M6.38 18.7 4 21"/>
  <path d="M17.64 18.67 20 21"/>
</symbol><symbol id="archive" viewBox="0 0 24 24" fill="none" stroke="currentColor" stroke-width="var(--icon-stroke-width, 2)" stroke-linecap="round" stroke-linejoin="round">
  <rect width="20" height="5" x="2" y="3" rx="1"/>
  <path d="M4 8v11a2 2 0 0 0 2 2h12a2 2 0 0 0 2-2V8"/>
  <path d="M10 12h4"/>
</symbol><symbol id="arrow-right" viewBox="0 0 24 24" fill="none" stroke="currentColor" stroke-width="var(--icon-stroke-width, 2)" stroke-linecap="round" stroke-linejoin="round">
  <path d="M5 12h14"/>
  <path d="m12 5 7 7-7 7"/>
</symbol><symbol id="badge-check" viewBox="0 0 24 24" fill="none" stroke="currentColor" stroke-width="var(--icon-stroke-width, 2)" stroke-linecap="round" stroke-linejoin="round">
  <path d="M3.85 8.62a4 4 0 0 1 4.78-4.77 4 4 0 0 1 6.74 0 4 4 0 0 1 4.78 4.78 4 4 0 0 1 0 6.74 4 4 0 0 1-4.77 4.78 4 4 0 0 1-6.75 0 4 4 0 0 1-4.78-4.77 4 4 0 0 1 0-6.76Z"/>
  <path d="m9 12 2 2 4-4"/>
</symbol><symbol id="bell" viewBox="0 0 24 24" fill="none" stroke="currentColor" stroke-width="var(--icon-stroke-width, 2)" stroke-linecap="round" stroke-linejoin="round">
  <path d="M10.268 21a2 2 0 0 0 3.464 0"/>
  <path d="M3.262 15.326A1 1 0 0 0 4 17h16a1 1 0 0 0 .74-1.673C19.41 13.956 18 12.499 18 8A6 6 0 0 0 6 8c0 4.499-1.411 5.956-2.738 7.326"/>
</symbol><symbol id="calendar" viewBox="0 0 24 24" fill="none" stroke="currentColor" stroke-width="var(--icon-stroke-width, 2)" stroke-linecap="round" stroke-linejoin="round">
  <path d="M8 2v4"/>
  <path d="M16 2v4"/>
  <rect width="18" height="18" x="3" y="4" rx="2"/>
  <path d="M3 10h18"/>
</symbol><symbol id="check-circle" viewBox="0 0 24 24" fill="none" stroke="currentColor" stroke-width="var(--icon-stroke-width, 2)" stroke-linecap="round" stroke-linejoin="round">
  <path d="M21.801 10A10 10 0 1 1 17 3.335"/>
  <path d="m9 11 3 3L22 4"/>
</symbol><symbol id="code" viewBox="0 0 24 24" fill="none" stroke="currentColor" stroke-width="var(--icon-stroke-width, 2)" stroke-linecap="round" stroke-linejoin="round">
  <path d="m16 18 6-6-6-6"/>
  <path d="m8 6-6 6 6 6"/>
</symbol><symbol id="download" viewBox="0 0 24 24" fill="none" stroke="currentColor" stroke-width="var(--icon-stroke-width, 2)" stroke-linecap="round" stroke-linejoin="round">
  <path d="M12 15V3"/>
  <path d="M21 15v4a2 2 0 0 1-2 2H5a2 2 0 0 1-2-2v-4"/>
  <path d="m7 10 5 5 5-5"/>
</symbol><symbol id="git-branch" viewBox="0 0 24 24" fill="none" stroke="currentColor" stroke-width="var(--icon-stroke-width, 2)" stroke-linecap="round" stroke-linejoin="round">
  <path d="M15 6a9 9 0 0 0-9 9V3"/>
  <circle cx="18" cy="6" r="3"/>
  <circle cx="6" cy="18" r="3"/>
</symbol><symbol id="git-commit-vertical" viewBox="0 0 24 24" fill="none" stroke="currentColor" stroke-width="var(--icon-stroke-width, 2)" stroke-linecap="round" stroke-linejoin="round">
  <path d="M12 3v6"/>
  <circle cx="12" cy="12" r="3"/>
  <path d="M12 15v6"/>
</symbol><symbol id="git-merge" viewBox="0 0 24 24" fill="none" stroke="currentColor" stroke-width="var(--icon-stroke-width, 2)" stroke-linecap="round" stroke-linejoin="round">
  <circle cx="18" cy="18" r="3"/>
  <circle cx="6" cy="6" r="3"/>
  <path d="M6 21V9a9 9 0 0 0 9 9"/>
</symbol><symbol id="git-pull-request" viewBox="0 0 24 24" fill="none" stroke="currentColor" stroke-width="var(--icon-stroke-width, 2)" stroke-linecap="round" stroke-linejoin="round">
  <circle cx="18" cy="18" r="3"/>
  <circle cx="6" cy="6" r="3"/>
  <path d="M13 6h3a2 2 0 0 1 2 2v7"/>
  <line x1="6" x2="6" y1="9" y2="21"/>
</symbol><symbol id="heart" viewBox="0 0 24 24" fill="none" stroke="currentColor" stroke-width="var(--icon-stroke-width, 2)" stroke-linecap="round" stroke-linejoin="round">
  <path d="M2 9.5a5.5 5.5 0 0 1 9.591-3.676.56.56 0 0 0 .818 0A5.49 5.49 0 0 1 22 9.5c0 2.29-1.5 4-3 5.5l-5.492 5.313a2 2 0 0 1-3 .019L5 15c-1.5-1.5-3-3.2-3-5.5"/>
</symbol><symbol id="layers" viewBox="0 0 24 24" fill="none" stroke="currentColor" stroke-width="var(--icon-stroke-width, 2)" stroke-linecap="round" stroke-linejoin="round">
  <path d="M12.83 2.18a2 2 0 0 0-1.66 0L2.6 6.08a1 1 0 0 0 0 1.83l8.58 3.91a2 2 0 0 0 1.66 0l8.58-3.9a1 1 0 0 0 0-1.83z"/>
  <path d="M2 12a1 1 0 0 0 .58.91l8.6 3.91a2 2 0 0 0 1.65 0l8.58-3.9A1 1 0 0 0 22 12"/>
  <path d="M2 17a1 1 0 0 0 .58.91l8.6 3.91a2 2 0 0 0 1.65 0l8.58-3.9A1 1 0 0 0 22 17"/>
</symbol><symbol id="mail" viewBox="0 0 24 24" fill="none" stroke="currentColor" stroke-width="var(--icon-stroke-width, 2)" stroke-linecap="round" stroke-linejoin="round">
  <path d="m22 7-8.991 5.727a2 2 0 0 1-2.009 0L2 7"/>
  <rect x="2" y="4" width="20" height="16" rx="2"/>
</symbol><symbol id="package" viewBox="0 0 24 24" fill="none" stroke="currentColor" stroke-width="var(--icon-stroke-width, 2)" stroke-linecap="round" stroke-linejoin="round">
  <path d="M11 21.73a2 2 0 0 0 2 0l7-4A2 2 0 0 0 21 16V8a2 2 0 0 0-1-1.73l-7-4a2 2 0 0 0-2 0l-7 4A2 2 0 0 0 3 8v8a2 2 0 0 0 1 1.73z"/>
  <path d="M12 22V12"/>
  <polyline points="3.29 7 12 12 20.71 7"/>
  <path d="m7.5 4.27 9 5.15"/>
</symbol><symbol id="rocket" viewBox="0 0 24 24" fill="none" stroke="currentColor" stroke-width="var(--icon-stroke-width, 2)" stroke-linecap="round" stroke-linejoin="round">
  <path d="M12 15v5s3.03-.55 4-2c1.08-1.62 0-5 0-5"/>
  <path d="M4.5 16.5c-1.5 1.26-2 5-2 5s3.74-.5 5-2c.71-.84.7-2.13-.09-2.91a2.18 2.18 0 0 0-2.91-.09"/>
  <path d="M9 12a22 22 0 0 1 2-3.95A12.88 12.88 0 0 1 22 2c0 2.72-.78 7.5-6 11a22.4 22.4 0 0 1-4 2z"/>
  <path d="M9 12H4s.55-3.03 2-4c1.62-1.08 5 .05 5 .05"/>
</symbol><symbol id="search" viewBox="0 0 24 24" fill="none" stroke="currentColor" stroke-width="var(--icon-stroke-width, 2)" stroke-linecap="round" stroke-linejoin="round">
  <path d="m21 21-4.34-4.34"/>
  <circle cx="11" cy="11" r="8"/>
</symbol><symbol id="settings" viewBox="0 0 24 24" fill="none" stroke="currentColor" stroke-width="var(--icon-stroke-width, 2)" stroke-linecap="round" stroke-linejoin="round">
  <path d="M9.671 4.136a2.34 2.34 0 0 1 4.659 0 2.34 2.34 0 0 0 3.319 1.915 2.34 2.34 0 0 1 2.33 4.033 2.34 2.34 0 0 0 0 3.831 2.34 2.34 0 0 1-2.33 4.033 2.34 2.34 0 0 0-3.319 1.915 2.34 2.34 0 0 1-4.659 0 2.34 2.34 0 0 0-3.32-1.915 2.34 2.34 0 0 1-2.33-4.033 2.34 2.34 0 0 0 0-3.831A2.34 2.34 0 0 1 6.35 6.051a2.34 2.34 0 0 0 3.319-1.915"/>
  <circle cx="12" cy="12" r="3"/>
</symbol><symbol id="sparkles" viewBox="0 0 24 24" fill="none" stroke="currentColor" stroke-width="var(--icon-stroke-width, 2)" stroke-linecap="round" stroke-linejoin="round">
  <path d="M11.017 2.814a1 1 0 0 1 1.966 0l1.051 5.558a2 2 0 0 0 1.594 1.594l5.558 1.051a1 1 0 0 1 0 1.966l-5.558 1.051a2 2 0 0 0-1.594 1.594l-1.051 5.558a1 1 0 0 1-1.966 0l-1.051-5.558a2 2 0 0 0-1.594-1.594l-5.558-1.051a1 1 0 0 1 0-1.966l5.558-1.051a2 2 0 0 0 1.594-1.594z"/>
  <path d="M20 2v4"/>
  <path d="M22 4h-4"/>
  <circle cx="4" cy="20" r="2"/>
</symbol><symbol id="zap" viewBox="0 0 24 24" fill="none" stroke="currentColor" stroke-width="var(--icon-stroke-width, 2)" stroke-linecap="round" stroke-linejoin="round">
  <path d="M4 14a1 1 0 0 1-.78-1.63l9.9-10.2a.5.5 0 0 1 .86.46l-1.92 6.02A1 1 0 0 0 13 10h7a1 1 0 0 1 .78 1.63l-9.9 10.2a.5.5 0 0 1-.86-.46l1.92-6.02A1 1 0 0 0 11 14z"/>
</symbol><symbol id="tabler-brand-github" viewBox="0 0 24 24" fill="none" stroke="currentColor" stroke-width="var(--icon-stroke-width, 2)" stroke-linecap="round" stroke-linejoin="round">
  <path stroke="none" d="M0 0h24v24H0z" fill="none"/>
  <path d="M9 19c-4.3 1.4 -4.3 -2.5 -6 -3m12 5v-3.5c0 -1 .1 -1.4 -.5 -2c2.8 -.3 5.5 -1.4 5.5 -6a4.6 4.6 0 0 0 -1.3 -3.2a4.2 4.2 0 0 0 -.1 -3.2s-1.1 -.3 -3.5 1.3a12.3 12.3 0 0 0 -6.2 0c-2.4 -1.6 -3.5 -1.3 -3.5 -1.3a4.2 4.2 0 0 0 -.1 3.2a4.6 4.6 0 0 0 -1.3 3.2c0 4.6 2.7 5.7 5.5 6c-.6 .6 -.6 1.2 -.5 2v3.5"/>
</symbol><symbol id="tabler-brand-tabler" viewBox="0 0 24 24" fill="none" stroke="currentColor" stroke-width="var(--icon-stroke-width, 2)" stroke-linecap="round" stroke-linejoin="round">
  <path stroke="none" d="M0 0h24v24H0z" fill="none"/>
  <path d="M8 9l3 3l-3 3"/>
  <path d="M13 15h3"/>
  <path d="M3 7a4 4 0 0 1 4 -4h10a4 4 0 0 1 4 4v10a4 4 0 0 1 -4 4h-10a4 4 0 0 1 -4 -4l0 -10"/>
</symbol><symbol id="tabler-heart" viewBox="0 0 24 24" fill="none" stroke="currentColor" stroke-width="var(--icon-stroke-width, 2)" stroke-linecap="round" stroke-linejoin="round">
  <path stroke="none" d="M0 0h24v24H0z" fill="none"/>
  <path d="M19.5 12.572l-7.5 7.428l-7.5 -7.428a5 5 0 1 1 7.5 -6.566a5 5 0 1 1 7.5 6.572"/>
</symbol></svg>